<svg xmlns="http://www.w3.org/2000/svg" xmlns:xlink="http://www.w3.org/1999/xlink" width="410" height="467.142" viewBox="0 0 410 467.142">
  <defs>
    <filter id="Rectangle_605" x="0" y="0" width="410" height="467.142" filterUnits="userSpaceOnUse">
      <feOffset dx="1.124" dy="2.782" input="SourceAlpha"/>
      <feGaussianBlur stdDeviation="3.5" result="blur"/>
      <feFlood flood-opacity="0.349"/>
      <feComposite operator="in" in2="blur"/>
      <feComposite in="SourceGraphic"/>
    </filter>
  </defs>
  <g transform="matrix(1, 0, 0, 1, 0, 0)" filter="url(#Rectangle_605)">
    <g id="Rectangle_605-2" data-name="Rectangle 605" transform="translate(-958.62 -2358.28)" fill="#fff" stroke-linejoin="round">
      <path d="M 1324.999877929688 2811.374267578125 L 1313.2373046875 2797.674560546875 L 1313.087646484375 2797.500244140625 L 1312.85791015625 2797.500244140625 L 968.5004272460938 2797.500244140625 L 968.5004272460938 2366.500244140625 L 1356.500244140625 2366.500244140625 L 1356.500244140625 2797.500244140625 L 1337.141723632812 2797.500244140625 L 1336.911987304688 2797.500244140625 L 1336.762451171875 2797.674560546875 L 1324.999877929688 2811.374267578125 Z" stroke="none"/>
      <path d="M 1324.999877929688 2810.606689453125 L 1336.383056640625 2797.348876953125 C 1336.572998046875 2797.127685546875 1336.85009765625 2797.000244140625 1337.141723632812 2797.000244140625 L 1356.000244140625 2797.000244140625 L 1356.000244140625 2367.000244140625 L 969.0004272460938 2367.000244140625 L 969.0004272460938 2797.000244140625 L 1312.85791015625 2797.000244140625 C 1313.149536132812 2797.000244140625 1313.426635742188 2797.127685546875 1313.61669921875 2797.348876953125 L 1324.999877929688 2810.606689453125 M 1324.999877929688 2812.141845703125 L 1312.85791015625 2798.000244140625 L 968.0004272460938 2798.000244140625 L 968.0004272460938 2366.000244140625 L 1357.000244140625 2366.000244140625 L 1357.000244140625 2798.000244140625 L 1337.141723632812 2798.000244140625 L 1324.999877929688 2812.141845703125 Z" stroke="none" fill="#f2f2f2"/>
    </g>
  </g>
</svg>
